<svg id="visual" viewBox="0 0 1280 300" width="1280" height="300" xmlns="http://www.w3.org/2000/svg" xmlns:xlink="http://www.w3.org/1999/xlink" version="1.1"><rect x="0" y="0" width="1280" height="300" fill="#242424"></rect><path d="M0 150L26.7 148.7C53.3 147.3 106.7 144.7 160 143.8C213.3 143 266.7 144 320 152C373.3 160 426.7 175 480 179.7C533.3 184.3 586.7 178.7 640 169.7C693.3 160.7 746.7 148.3 800 150.7C853.3 153 906.7 170 960 170.3C1013.3 170.7 1066.7 154.3 1120 155.2C1173.3 156 1226.7 174 1253.3 183L1280 192L1280 0L1253.3 0C1226.7 0 1173.3 0 1120 0C1066.7 0 1013.3 0 960 0C906.7 0 853.3 0 800 0C746.7 0 693.3 0 640 0C586.7 0 533.3 0 480 0C426.7 0 373.3 0 320 0C266.7 0 213.3 0 160 0C106.7 0 53.3 0 26.7 0L0 0Z" fill="#343434"></path><path d="M0 118L26.7 116.3C53.3 114.7 106.7 111.3 160 107.8C213.3 104.3 266.7 100.7 320 100.5C373.3 100.3 426.7 103.7 480 104.5C533.3 105.3 586.7 103.7 640 109C693.3 114.3 746.7 126.7 800 134C853.3 141.3 906.7 143.7 960 137.5C1013.3 131.3 1066.7 116.7 1120 112.3C1173.3 108 1226.7 114 1253.3 117L1280 120L1280 0L1253.3 0C1226.7 0 1173.3 0 1120 0C1066.7 0 1013.3 0 960 0C906.7 0 853.3 0 800 0C746.7 0 693.3 0 640 0C586.7 0 533.3 0 480 0C426.7 0 373.3 0 320 0C266.7 0 213.3 0 160 0C106.7 0 53.3 0 26.7 0L0 0Z" fill="#676767"></path><path d="M0 104L26.7 101.2C53.3 98.3 106.7 92.7 160 90.5C213.3 88.3 266.7 89.7 320 87.5C373.3 85.3 426.7 79.7 480 78.2C533.3 76.7 586.7 79.3 640 83.5C693.3 87.7 746.7 93.3 800 89C853.3 84.7 906.7 70.3 960 64C1013.3 57.7 1066.7 59.3 1120 61.8C1173.3 64.3 1226.7 67.7 1253.3 69.3L1280 71L1280 0L1253.3 0C1226.7 0 1173.3 0 1120 0C1066.7 0 1013.3 0 960 0C906.7 0 853.3 0 800 0C746.7 0 693.3 0 640 0C586.7 0 533.3 0 480 0C426.7 0 373.3 0 320 0C266.7 0 213.3 0 160 0C106.7 0 53.3 0 26.7 0L0 0Z" fill="#a0a0a0"></path><path d="M0 23L26.7 30.5C53.3 38 106.7 53 160 57.2C213.3 61.3 266.7 54.7 320 53C373.3 51.3 426.7 54.7 480 56.8C533.3 59 586.7 60 640 60.8C693.3 61.7 746.7 62.3 800 61.5C853.3 60.7 906.7 58.3 960 58.3C1013.3 58.3 1066.7 60.7 1120 59.2C1173.3 57.7 1226.7 52.3 1253.3 49.7L1280 47L1280 0L1253.3 0C1226.7 0 1173.3 0 1120 0C1066.7 0 1013.3 0 960 0C906.7 0 853.3 0 800 0C746.7 0 693.3 0 640 0C586.7 0 533.3 0 480 0C426.7 0 373.3 0 320 0C266.7 0 213.3 0 160 0C106.7 0 53.3 0 26.7 0L0 0Z" fill="#dddddd"></path></svg>