<svg id="visual" viewBox="0 0 1280 240" width="1280" height="240" xmlns="http://www.w3.org/2000/svg" xmlns:xlink="http://www.w3.org/1999/xlink" version="1.1"><rect x="0" y="0" width="1280" height="240" fill="#242424"></rect><path d="M0 171L30.5 162.3C61 153.7 122 136.3 183 135.2C244 134 305 149 366 150C427 151 488 138 548.8 138.5C609.7 139 670.3 153 731.2 154C792 155 853 143 914 137C975 131 1036 131 1097 135.5C1158 140 1219 149 1249.5 153.5L1280 158L1280 0L1249.5 0C1219 0 1158 0 1097 0C1036 0 975 0 914 0C853 0 792 0 731.2 0C670.3 0 609.7 0 548.8 0C488 0 427 0 366 0C305 0 244 0 183 0C122 0 61 0 30.5 0L0 0Z" fill="#1e1e1e"></path><path d="M0 119L30.5 115.5C61 112 122 105 183 104.5C244 104 305 110 366 109.8C427 109.7 488 103.3 548.8 106.7C609.7 110 670.3 123 731.2 127C792 131 853 126 914 118.7C975 111.3 1036 101.7 1097 103.5C1158 105.3 1219 118.7 1249.5 125.3L1280 132L1280 0L1249.5 0C1219 0 1158 0 1097 0C1036 0 975 0 914 0C853 0 792 0 731.2 0C670.3 0 609.7 0 548.8 0C488 0 427 0 366 0C305 0 244 0 183 0C122 0 61 0 30.5 0L0 0Z" fill="#323232"></path><path d="M0 108L30.5 107C61 106 122 104 183 101.2C244 98.3 305 94.7 366 95.5C427 96.3 488 101.7 548.8 101.5C609.7 101.3 670.3 95.7 731.2 90.3C792 85 853 80 914 82.3C975 84.7 1036 94.3 1097 95.2C1158 96 1219 88 1249.5 84L1280 80L1280 0L1249.5 0C1219 0 1158 0 1097 0C1036 0 975 0 914 0C853 0 792 0 731.2 0C670.3 0 609.7 0 548.8 0C488 0 427 0 366 0C305 0 244 0 183 0C122 0 61 0 30.5 0L0 0Z" fill="#484848"></path><path d="M0 78L30.5 74C61 70 122 62 183 60.7C244 59.3 305 64.7 366 68.5C427 72.3 488 74.7 548.8 76C609.7 77.3 670.3 77.7 731.2 75.2C792 72.7 853 67.3 914 67.2C975 67 1036 72 1097 69.3C1158 66.7 1219 56.3 1249.5 51.2L1280 46L1280 0L1249.5 0C1219 0 1158 0 1097 0C1036 0 975 0 914 0C853 0 792 0 731.2 0C670.3 0 609.7 0 548.8 0C488 0 427 0 366 0C305 0 244 0 183 0C122 0 61 0 30.5 0L0 0Z" fill="#5f5f5f"></path><path d="M0 29L30.5 28.3C61 27.7 122 26.3 183 28.5C244 30.7 305 36.3 366 38.3C427 40.3 488 38.7 548.8 39C609.7 39.3 670.3 41.7 731.2 40.8C792 40 853 36 914 36C975 36 1036 40 1097 41.8C1158 43.7 1219 43.3 1249.5 43.2L1280 43L1280 0L1249.5 0C1219 0 1158 0 1097 0C1036 0 975 0 914 0C853 0 792 0 731.2 0C670.3 0 609.7 0 548.8 0C488 0 427 0 366 0C305 0 244 0 183 0C122 0 61 0 30.5 0L0 0Z" fill="#777777"></path></svg>