<svg id="visual" viewBox="0 0 1350 560" width="1350" height="560" xmlns="http://www.w3.org/2000/svg" xmlns:xlink="http://www.w3.org/1999/xlink" version="1.1"><rect x="0" y="0" width="1350" height="560" fill="#242424"></rect><path d="M0 420L56.3 424.8C112.7 429.7 225.3 439.3 337.8 440.5C450.3 441.7 562.7 434.3 675.2 413.5C787.7 392.7 900.3 358.3 1012.8 335.3C1125.3 312.3 1237.7 300.7 1293.8 294.8L1350 289L1350 561L1293.8 561C1237.7 561 1125.3 561 1012.8 561C900.3 561 787.7 561 675.2 561C562.7 561 450.3 561 337.8 561C225.3 561 112.7 561 56.3 561L0 561Z" fill="#0e085c" stroke-linecap="round" stroke-linejoin="miter"></path></svg>