<svg id="visual" viewBox="0 0 1280 300" width="1280" height="300" xmlns="http://www.w3.org/2000/svg" xmlns:xlink="http://www.w3.org/1999/xlink" version="1.1"><rect x="0" y="0" width="1280" height="300" fill="#242424"></rect><path d="M0 103L19.3 104.7C38.7 106.3 77.3 109.7 116.2 113.7C155 117.7 194 122.3 232.8 129.8C271.7 137.3 310.3 147.7 349 152.2C387.7 156.7 426.3 155.3 465.2 157C504 158.7 543 163.3 581.8 165.7C620.7 168 659.3 168 698.2 163.3C737 158.7 776 149.3 814.8 140C853.7 130.7 892.3 121.3 931 127.2C969.7 133 1008.3 154 1047.2 163.7C1086 173.3 1125 171.7 1163.8 168.5C1202.7 165.3 1241.3 160.7 1260.7 158.3L1280 156L1280 301L1260.7 301C1241.3 301 1202.7 301 1163.8 301C1125 301 1086 301 1047.2 301C1008.3 301 969.7 301 931 301C892.3 301 853.7 301 814.8 301C776 301 737 301 698.2 301C659.3 301 620.7 301 581.8 301C543 301 504 301 465.2 301C426.3 301 387.7 301 349 301C310.3 301 271.7 301 232.8 301C194 301 155 301 116.2 301C77.3 301 38.7 301 19.3 301L0 301Z" fill="#343434"></path><path d="M0 150L19.3 154.3C38.7 158.7 77.3 167.3 116.2 176.8C155 186.3 194 196.7 232.8 192.7C271.7 188.7 310.3 170.3 349 168.5C387.7 166.7 426.3 181.3 465.2 184.2C504 187 543 178 581.8 181.2C620.7 184.3 659.3 199.7 698.2 195.7C737 191.7 776 168.3 814.8 164.7C853.7 161 892.3 177 931 182.5C969.7 188 1008.3 183 1047.2 176.7C1086 170.3 1125 162.7 1163.8 162.7C1202.7 162.7 1241.3 170.3 1260.7 174.2L1280 178L1280 301L1260.7 301C1241.3 301 1202.7 301 1163.8 301C1125 301 1086 301 1047.2 301C1008.3 301 969.7 301 931 301C892.3 301 853.7 301 814.8 301C776 301 737 301 698.2 301C659.3 301 620.7 301 581.8 301C543 301 504 301 465.2 301C426.3 301 387.7 301 349 301C310.3 301 271.7 301 232.8 301C194 301 155 301 116.2 301C77.3 301 38.7 301 19.3 301L0 301Z" fill="#676767"></path><path d="M0 219L19.3 217.8C38.7 216.7 77.3 214.3 116.2 209C155 203.7 194 195.3 232.8 194.3C271.7 193.3 310.3 199.7 349 206.2C387.7 212.7 426.3 219.3 465.2 223.8C504 228.3 543 230.7 581.8 224C620.7 217.3 659.3 201.7 698.2 199.5C737 197.3 776 208.7 814.8 214.5C853.7 220.3 892.3 220.7 931 220.8C969.7 221 1008.3 221 1047.2 222C1086 223 1125 225 1163.8 228.7C1202.7 232.3 1241.3 237.7 1260.7 240.3L1280 243L1280 301L1260.7 301C1241.3 301 1202.7 301 1163.8 301C1125 301 1086 301 1047.2 301C1008.3 301 969.7 301 931 301C892.3 301 853.7 301 814.8 301C776 301 737 301 698.2 301C659.3 301 620.7 301 581.8 301C543 301 504 301 465.2 301C426.3 301 387.7 301 349 301C310.3 301 271.7 301 232.8 301C194 301 155 301 116.2 301C77.3 301 38.7 301 19.3 301L0 301Z" fill="#a0a0a0"></path><path d="M0 240L19.3 240.2C38.7 240.3 77.3 240.7 116.2 238.7C155 236.7 194 232.3 232.8 236.5C271.7 240.7 310.3 253.3 349 254.5C387.7 255.7 426.3 245.3 465.2 245.2C504 245 543 255 581.8 261C620.7 267 659.3 269 698.2 263.8C737 258.7 776 246.3 814.8 245C853.7 243.7 892.3 253.3 931 255C969.7 256.7 1008.3 250.3 1047.2 246.8C1086 243.3 1125 242.7 1163.8 247.3C1202.7 252 1241.3 262 1260.7 267L1280 272L1280 301L1260.7 301C1241.3 301 1202.7 301 1163.8 301C1125 301 1086 301 1047.2 301C1008.3 301 969.7 301 931 301C892.3 301 853.7 301 814.8 301C776 301 737 301 698.2 301C659.3 301 620.7 301 581.8 301C543 301 504 301 465.2 301C426.3 301 387.7 301 349 301C310.3 301 271.7 301 232.8 301C194 301 155 301 116.2 301C77.3 301 38.7 301 19.3 301L0 301Z" fill="#dddddd"></path></svg>