<svg id="visual" viewBox="0 0 1280 240" width="1280" height="240" xmlns="http://www.w3.org/2000/svg" xmlns:xlink="http://www.w3.org/1999/xlink" version="1.1"><rect x="0" y="0" width="1280" height="240" fill="#242424"></rect><path d="M0 127L16.3 117C32.7 107 65.3 87 98.2 81.5C131 76 164 85 196.8 93.7C229.7 102.3 262.3 110.7 295.2 107.8C328 105 361 91 393.8 92C426.7 93 459.3 109 492.2 109.5C525 110 558 95 590.8 88.7C623.7 82.3 656.3 84.7 689.2 90.2C722 95.7 755 104.3 787.8 106.2C820.7 108 853.3 103 886.2 105C919 107 952 116 984.8 109.3C1017.7 102.7 1050.3 80.3 1083.2 73.8C1116 67.3 1149 76.7 1181.8 78.3C1214.7 80 1247.3 74 1263.7 71L1280 68L1280 241L1263.7 241C1247.3 241 1214.7 241 1181.8 241C1149 241 1116 241 1083.2 241C1050.3 241 1017.7 241 984.8 241C952 241 919 241 886.2 241C853.3 241 820.7 241 787.8 241C755 241 722 241 689.2 241C656.3 241 623.7 241 590.8 241C558 241 525 241 492.2 241C459.3 241 426.7 241 393.8 241C361 241 328 241 295.2 241C262.3 241 229.7 241 196.8 241C164 241 131 241 98.2 241C65.3 241 32.7 241 16.3 241L0 241Z" fill="#1e1e1e"></path><path d="M0 155L16.3 151.5C32.7 148 65.3 141 98.2 130.3C131 119.7 164 105.3 196.8 102.8C229.7 100.3 262.3 109.7 295.2 114C328 118.3 361 117.7 393.8 124C426.7 130.3 459.3 143.7 492.2 148.3C525 153 558 149 590.8 142.8C623.7 136.7 656.3 128.3 689.2 121.8C722 115.3 755 110.7 787.8 107.7C820.7 104.7 853.3 103.3 886.2 100.3C919 97.3 952 92.7 984.8 98.2C1017.7 103.7 1050.3 119.3 1083.2 127.5C1116 135.7 1149 136.3 1181.8 131.8C1214.7 127.3 1247.3 117.7 1263.7 112.8L1280 108L1280 241L1263.7 241C1247.3 241 1214.7 241 1181.8 241C1149 241 1116 241 1083.2 241C1050.3 241 1017.7 241 984.8 241C952 241 919 241 886.2 241C853.3 241 820.7 241 787.8 241C755 241 722 241 689.2 241C656.3 241 623.7 241 590.8 241C558 241 525 241 492.2 241C459.3 241 426.7 241 393.8 241C361 241 328 241 295.2 241C262.3 241 229.7 241 196.8 241C164 241 131 241 98.2 241C65.3 241 32.7 241 16.3 241L0 241Z" fill="#323232"></path><path d="M0 145L16.3 148.2C32.7 151.3 65.3 157.7 98.2 156.7C131 155.7 164 147.3 196.8 144.8C229.7 142.3 262.3 145.7 295.2 150.8C328 156 361 163 393.8 157.8C426.7 152.7 459.3 135.3 492.2 130.2C525 125 558 132 590.8 137C623.7 142 656.3 145 689.2 141.7C722 138.3 755 128.7 787.8 126.5C820.7 124.3 853.3 129.7 886.2 140C919 150.3 952 165.7 984.8 171.5C1017.7 177.3 1050.3 173.7 1083.2 172.5C1116 171.3 1149 172.7 1181.8 164.5C1214.7 156.3 1247.3 138.7 1263.7 129.8L1280 121L1280 241L1263.7 241C1247.3 241 1214.7 241 1181.8 241C1149 241 1116 241 1083.2 241C1050.3 241 1017.7 241 984.8 241C952 241 919 241 886.2 241C853.3 241 820.7 241 787.8 241C755 241 722 241 689.2 241C656.3 241 623.7 241 590.8 241C558 241 525 241 492.2 241C459.3 241 426.7 241 393.8 241C361 241 328 241 295.2 241C262.3 241 229.7 241 196.8 241C164 241 131 241 98.2 241C65.3 241 32.7 241 16.3 241L0 241Z" fill="#484848"></path><path d="M0 183L16.3 179.8C32.7 176.7 65.3 170.3 98.2 167.8C131 165.3 164 166.7 196.8 170.2C229.7 173.7 262.3 179.3 295.2 178.5C328 177.7 361 170.3 393.8 164.7C426.7 159 459.3 155 492.2 157.2C525 159.3 558 167.7 590.8 167.5C623.7 167.3 656.3 158.7 689.2 157.7C722 156.7 755 163.3 787.8 169.3C820.7 175.3 853.3 180.7 886.2 182C919 183.3 952 180.7 984.8 176.5C1017.7 172.3 1050.3 166.7 1083.2 164.3C1116 162 1149 163 1181.8 165.8C1214.7 168.7 1247.3 173.3 1263.7 175.7L1280 178L1280 241L1263.7 241C1247.3 241 1214.7 241 1181.8 241C1149 241 1116 241 1083.2 241C1050.3 241 1017.7 241 984.8 241C952 241 919 241 886.2 241C853.3 241 820.7 241 787.8 241C755 241 722 241 689.2 241C656.3 241 623.7 241 590.8 241C558 241 525 241 492.2 241C459.3 241 426.7 241 393.8 241C361 241 328 241 295.2 241C262.3 241 229.7 241 196.8 241C164 241 131 241 98.2 241C65.3 241 32.7 241 16.3 241L0 241Z" fill="#5f5f5f"></path><path d="M0 215L16.3 214.7C32.7 214.3 65.3 213.7 98.2 209.8C131 206 164 199 196.8 196C229.7 193 262.3 194 295.2 194C328 194 361 193 393.8 195.3C426.7 197.7 459.3 203.3 492.2 202.2C525 201 558 193 590.8 195.5C623.7 198 656.3 211 689.2 214.8C722 218.7 755 213.3 787.8 207.8C820.7 202.3 853.3 196.7 886.2 198.2C919 199.7 952 208.3 984.8 211C1017.7 213.7 1050.3 210.3 1083.2 206.2C1116 202 1149 197 1181.8 196C1214.7 195 1247.3 198 1263.7 199.5L1280 201L1280 241L1263.7 241C1247.3 241 1214.7 241 1181.8 241C1149 241 1116 241 1083.2 241C1050.3 241 1017.7 241 984.8 241C952 241 919 241 886.2 241C853.3 241 820.7 241 787.8 241C755 241 722 241 689.2 241C656.3 241 623.7 241 590.8 241C558 241 525 241 492.2 241C459.3 241 426.7 241 393.8 241C361 241 328 241 295.2 241C262.3 241 229.7 241 196.8 241C164 241 131 241 98.2 241C65.3 241 32.7 241 16.3 241L0 241Z" fill="#777777"></path></svg>